# xmcd CD database file generated by freedbAccess_ocx
#
# Track frame offsets:
#       150
#       23886
#       42424
#       59112
#       75925
#       91705
#       126716
#       143322
#       172661
#       196996
#       212607
#       229577
#       247702
#       265418
#       284791
#       298518
#
# Disc length: 4208 seconds
#
# Revision: 0
# Processed by: cddbd v1.5.2PL0 Copyright (c) Steve Scherf et al.
# Submitted via: CDnGo 2.00
#
DISCID=de106e10
DTITLE=Lilo Wanders praesentiert ... - Wa(h)re Lieb Vol.2 CD1
DYEAR=1998
DGENRE=Pop
TTITLE0=Sparkle feat. R.Kelly - Be Careful
TTITLE1=Down Low - H.I.V.
TTITLE2=Jonestown feat. Twisted - Tonight
TTITLE3=Craig Smart - I'll Be Ready
TTITLE4=Dean - Does She, Does She Not
TTITLE5=Black Rain feat. John D. - Do You Wanna Be
TTITLE6=Joana - Million Years
TTITLE7=Kym Mazelle - A Place In My Heart
TTITLE8=Jolynn Murry - Wrapped Up
TTITLE9=De'Lacy - Hide Away (Deep Dish Radio Edit)
TTITLE10=Lovestation - Teardrops
TTITLE11=Alison Limerick - Let's Hold On To Love (Ruff Driverz Edit)
TTITLE12=Ricky Collins - What You Get
TTITLE13=P.M. Dawn - I Had No Right
TTITLE14=Spice - Brick House (Sounds Of Life Classic Vocal Radio Mix)
TTITLE15=Core - Je T'aime
EXTD=
EXTT0=
EXTT1=
EXTT2=
EXTT3=
EXTT4=
EXTT5=
EXTT6=
EXTT7=
EXTT8=
EXTT9=
EXTT10=
EXTT11=
EXTT12=
EXTT13=
EXTT14=
EXTT15=
PLAYORDER=
